<svg width="20" height="20" viewBox="0 0 20 20" fill="none" xmlns="http://www.w3.org/2000/svg">
<path fill-rule="evenodd" clip-rule="evenodd" d="M9.75 19.5C15.1348 19.5 19.5 15.1348 19.5 9.75C19.5 4.36522 15.1348 0 9.75 0C4.36522 0 0 4.36522 0 9.75C0 15.1348 4.36522 19.5 9.75 19.5ZM9.5 8.68934L11.9697 6.21967C12.2626 5.92678 12.7374 5.92678 13.0303 6.21967C13.3232 6.51256 13.3232 6.98744 13.0303 7.28033L10.5607 9.75L13.0303 12.2197C13.3232 12.5126 13.3232 12.9874 13.0303 13.2803C12.7374 13.5732 12.2626 13.5732 11.9697 13.2803L9.5 10.8107L7.03033 13.2803C6.73744 13.5732 6.26256 13.5732 5.96967 13.2803C5.67678 12.9874 5.67678 12.5126 5.96967 12.2197L8.43934 9.75L5.96967 7.28033C5.67678 6.98744 5.67678 6.51256 5.96967 6.21967C6.26256 5.92678 6.73744 5.92678 7.03033 6.21967L9.5 8.68934ZM1.5 9.75C1.5 14.3063 5.19365 18 9.75 18C14.3063 18 18 14.3063 18 9.75C18 5.19365 14.3063 1.5 9.75 1.5C5.19365 1.5 1.5 5.19365 1.5 9.75Z" fill="#BDBDBD"/>
</svg>
