<svg width="65" height="65" viewBox="0 0 65 65" fill="none" xmlns="http://www.w3.org/2000/svg">
<path d="M32.8513 64.8309C50.4878 64.8309 64.8326 50.4861 64.8326 32.8525C64.8326 15.216 50.4878 0.871155 32.8513 0.871155C15.2148 0.871155 0.870041 15.216 0.870041 32.8525C0.872894 50.4861 15.2177 64.8309 32.8513 64.8309ZM32.8513 1.4502C50.1655 1.4502 64.2536 15.5383 64.2536 32.8525C64.2536 50.1666 50.1684 64.2519 32.8542 64.2519C15.54 64.2519 1.45194 50.1666 1.45194 32.8525C1.45194 15.5383 15.5372 1.4502 32.8513 1.4502Z" fill="#303030"/>
<path d="M19.6653 44.4473L34.8605 45.7964C34.8737 44.5709 34.9578 40.3237 35.5653 38.3907C36.257 36.1843 42.5344 36.9864 44.1307 37.2284C45.0249 32.7313 46.5423 29.8832 46.608 29.7622C46.6869 29.615 46.871 29.5597 47.0183 29.6386C47.1656 29.7175 47.2208 29.9016 47.1419 30.0489C47.1261 30.0778 45.5377 33.0653 44.6698 37.6281C44.6383 37.7885 44.4831 37.8963 44.3227 37.87C41.3957 37.3861 36.5883 37.1468 36.1439 38.5696C35.4733 40.705 35.4654 46.0725 35.4654 46.1251C35.4654 46.2093 35.4286 46.2908 35.3681 46.3487C35.3128 46.3986 35.2392 46.4276 35.1629 46.4276C35.1551 46.4276 35.1445 46.4276 35.1366 46.4276L19.6153 45.0495C19.4496 45.0337 19.326 44.8865 19.3418 44.7208C19.3497 44.5551 19.4996 44.4341 19.6653 44.4473Z" fill="#303030"/>
<path d="M16.7383 37.0022C16.9644 36.6156 17.3326 36.3763 17.8349 36.2895C19.4155 36.016 28.8224 37.0416 30.5976 37.2389C30.7107 36.6419 30.9316 35.1166 30.545 33.7622C30.1426 32.3526 29.3037 29.4203 31.6968 28.6761C32.8172 28.3263 34.069 28.4894 35.5154 28.6761C36.6883 28.8286 38.019 28.9996 39.5101 28.9233C40.2859 28.8839 40.9329 28.8549 41.5193 28.8286C43.4286 28.7445 44.6935 28.6892 47.6232 28.3447C48.2149 28.1659 48.8566 28.2895 49.3405 28.6814C49.8349 29.0811 50.0953 29.6938 50.0348 30.3276L48.1492 50.5275C48.1386 50.6564 48.0466 50.7616 47.923 50.7931L47.8494 50.8115V51.3375C47.8494 51.448 47.7757 51.5453 47.6679 51.5742L46.1663 51.966C46.0111 52.0055 45.8612 51.8898 45.8612 51.7293V51.3112L39.326 52.9549V53.4992C39.326 53.6097 39.255 53.707 39.1472 53.7412L37.0775 54.3802C37.0381 54.3934 36.996 54.396 36.9565 54.3881L35.3918 54.0962C35.2734 54.0752 35.1867 53.97 35.1867 53.849V53.3257L19.2813 51.5689V51.8529C19.2813 51.9765 19.1735 52.0739 19.0499 52.0607L17.7061 51.9029C17.6009 51.8898 17.522 51.8004 17.522 51.6952V51.3585C17.4089 51.3138 17.3274 51.2086 17.3274 51.0798V40.3894L16.7146 39.2244C16.7067 39.2113 16.7015 39.1981 16.6962 39.185C16.6725 39.1324 16.236 37.8622 16.7383 37.0022ZM17.2564 38.9667L17.8928 40.1791C17.9164 40.2238 17.927 40.2711 17.927 40.3211V50.8168L36.7172 52.8917L37.0591 40.5078C37.0644 40.3395 37.2037 40.2054 37.3694 40.2132C37.5377 40.2185 37.6692 40.3579 37.664 40.5236L37.3247 52.8365L47.5653 50.2619L49.4325 30.275C49.472 29.8464 49.2958 29.4282 48.9592 29.1574C48.6225 28.8865 48.1939 28.805 47.7757 28.9365C47.7573 28.9417 47.7389 28.947 47.7179 28.9496C44.7461 29.2994 43.4707 29.3546 41.543 29.4414C40.9592 29.4677 40.3122 29.4966 39.539 29.5361C37.9927 29.615 36.6331 29.4414 35.4339 29.2862C34.0558 29.1074 32.8671 28.9549 31.873 29.2652C30.2662 29.7649 30.5634 31.6478 31.1235 33.6071C31.6574 35.4795 31.1472 37.5676 31.1262 37.6544C31.0893 37.8017 30.9526 37.899 30.7974 37.8806C26.9158 37.4414 19.234 36.6682 17.9322 36.8944C17.6114 36.9496 17.3905 37.089 17.2564 37.3151C16.9671 37.8069 17.1538 38.6537 17.2564 38.9667Z" fill="#303030"/>
<path d="M21.4956 35.7504C21.6639 35.7504 21.798 35.6136 21.798 35.448V22.6827C21.798 22.5144 21.6613 22.3802 21.4956 22.3802C21.3273 22.3802 21.1932 22.517 21.1932 22.6827V35.448C21.1932 35.6163 21.3299 35.7504 21.4956 35.7504Z" fill="#303030"/>
<path d="M15.9624 22.0331H27.0315C27.1288 22.0331 27.2208 21.9858 27.2787 21.9042C27.3365 21.8253 27.3497 21.7228 27.3181 21.6281L23.7731 11.5111C23.731 11.3901 23.6153 11.3086 23.4864 11.3086H19.5075C19.3786 11.3086 19.2655 11.3901 19.2208 11.5111L15.6758 21.6281C15.6442 21.7202 15.6574 21.8227 15.7152 21.9042C15.7731 21.9858 15.8651 22.0331 15.9624 22.0331Z" fill="#303030"/>
<path d="M20.1255 24.6498C20.2938 24.6498 20.4279 24.5131 20.4279 24.3474V22.6827C20.4279 22.5144 20.2912 22.3802 20.1255 22.3802C19.9572 22.3802 19.8231 22.517 19.8231 22.6827V24.3474C19.8231 24.5131 19.9572 24.6498 20.1255 24.6498Z" fill="#303030"/>
<path d="M23.9624 24.229C24.8145 24.229 25.5088 23.5347 25.5088 22.6827C25.5088 22.5144 25.372 22.3802 25.2064 22.3802C25.038 22.3802 24.9039 22.517 24.9039 22.6827C24.9039 23.2008 24.4805 23.6242 23.9624 23.6242C23.4444 23.6242 23.021 23.2008 23.021 22.6827C23.021 22.5144 22.8842 22.3802 22.7185 22.3802C22.5502 22.3802 22.4161 22.517 22.4161 22.6827C22.4161 23.5347 23.1104 24.229 23.9624 24.229Z" fill="#303030"/>
</svg>
