<svg width="24" height="24" viewBox="0 0 24 24" fill="none" xmlns="http://www.w3.org/2000/svg">
<g clip-path="url(#clip0_307_62)">
<path d="M19.0002 0H5.07514C3.94104 0 2.94525 0.932972 2.94525 2.0373V22.6367C2.94525 23.0064 3.04814 23.3144 3.21395 23.5525C3.41225 23.837 3.73154 24.0001 4.07392 24C4.39762 24 4.74227 23.8559 5.06054 23.5841L11.2906 18.2944C11.483 18.1301 11.7594 18.0359 12.0468 18.0359C12.3341 18.0359 12.6099 18.1301 12.8029 18.2949L19.0121 23.5833C19.3315 23.8559 19.6524 24.0001 19.9755 24.0001C20.522 24.0001 21.0546 23.5786 21.0546 22.6368V2.0373C21.0546 0.932972 20.1343 0 19.0002 0Z" fill="#303030"/>
</g>
<defs>
<clipPath id="clip0_307_62">
<rect width="24" height="24" fill="white"/>
</clipPath>
</defs>
</svg>
